# Blender v2.79 (sub 0) OBJ File: ''
# www.blender.org
mtllib snow.mtl
o Cube.002
v -0.291042 0.291042 0.291042
v 0.291042 -0.291041 0.291042
v 0.291041 0.291042 0.291042
v -0.291042 0.291041 -0.291042
v 0.291042 -0.291042 -0.291042
v -0.291041 -0.291042 -0.291042
v -0.291042 -0.291042 0.291042
v 0.291042 0.291042 -0.291042
vt 0.016572 0.902951
vt 0.990057 0.048377
vt 0.992181 0.901095
vt 0.000198 0.884472
vt 0.973684 0.029897
vt 0.975807 0.882615
vt 0.991102 0.055959
vt 0.017617 0.910533
vt 0.015492 0.057815
vt 0.990011 0.029866
vt 0.016525 0.884440
vt 0.014401 0.031723
vt 0.017624 0.913877
vt 0.991110 0.059302
vt 0.993234 0.912020
vt 0.004099 0.914799
vt 0.977584 0.060225
vt 0.979709 0.912943
vt 0.014447 0.050233
vt -0.001926 0.031754
vt 0.993226 0.908677
vt 0.992135 0.882584
vt 0.015500 0.061159
vt 0.001975 0.062082
vn -0.0000 -0.0000 1.0000
vn 0.0000 0.0000 -1.0000
vn -1.0000 -0.0000 -0.0000
vn 0.0000 -1.0000 0.0000
vn 1.0000 0.0000 0.0000
vn -0.0000 1.0000 -0.0000
usemtl None
s 1
f 1/1/1 2/2/1 3/3/1
f 4/4/2 5/5/2 6/6/2
f 4/7/3 7/8/3 1/9/3
f 6/10/4 2/11/4 7/12/4
f 5/13/5 3/14/5 2/15/5
f 1/16/6 8/17/6 4/18/6
f 1/1/1 7/19/1 2/2/1
f 4/4/2 8/20/2 5/5/2
f 4/7/3 6/21/3 7/8/3
f 6/10/4 5/22/4 2/11/4
f 5/13/5 8/23/5 3/14/5
f 1/16/6 3/24/6 8/17/6
