# Blender v2.79 (sub 0) OBJ File: 'treelog.blend'
# www.blender.org
o Cylinder
v 0.051269 0.206586 -0.419179
v 0.051269 0.206586 0.385484
v 0.090514 0.202720 0.385484
v 0.090514 0.202720 -0.419179
v 0.128251 0.191273 0.385484
v 0.128251 0.191273 -0.419179
v 0.163030 0.172683 0.385484
v 0.163030 0.172683 -0.419179
v 0.193514 0.147665 0.385484
v 0.193514 0.147665 -0.419179
v 0.218532 0.117181 0.385484
v 0.218532 0.117181 -0.419179
v 0.237122 0.082403 0.385484
v 0.237122 0.082403 -0.419179
v 0.248569 0.044665 0.385484
v 0.248569 0.044665 -0.419179
v 0.252434 0.005420 0.385484
v 0.252434 0.005420 -0.419179
v 0.248569 -0.033826 0.385484
v 0.248569 -0.033826 -0.419179
v 0.237122 -0.071563 0.385484
v 0.237122 -0.071563 -0.419179
v 0.218532 -0.106342 0.385484
v 0.218532 -0.106342 -0.419179
v 0.193514 -0.136826 0.385484
v 0.193514 -0.136826 -0.419179
v 0.163030 -0.161844 0.385484
v 0.163030 -0.161844 -0.419179
v 0.128251 -0.180433 0.385484
v 0.128251 -0.180433 -0.419179
v 0.090514 -0.191881 0.385484
v 0.090514 -0.191881 -0.419179
v 0.051269 -0.195746 0.385484
v 0.051269 -0.195746 -0.419179
v 0.012023 -0.191881 0.385484
v 0.012023 -0.191881 -0.419179
v -0.025714 -0.180433 0.385484
v -0.025714 -0.180433 -0.419179
v -0.060493 -0.161844 0.385484
v -0.060493 -0.161844 -0.419179
v -0.090977 -0.136826 0.385484
v -0.090977 -0.136826 -0.419179
v -0.115995 -0.106342 0.385484
v -0.115995 -0.106342 -0.419179
v -0.134585 -0.071563 0.385484
v -0.134585 -0.071563 -0.419179
v -0.146032 -0.033826 0.385484
v -0.146032 -0.033826 -0.419179
v -0.149897 0.005420 0.385484
v -0.149897 0.005420 -0.419179
v -0.146032 0.044665 0.385484
v -0.146032 0.044665 -0.419179
v -0.134584 0.082403 0.385484
v -0.134584 0.082403 -0.419179
v -0.115995 0.117182 0.385484
v -0.115995 0.117182 -0.419179
v -0.090977 0.147666 0.385484
v -0.090977 0.147666 -0.419179
v -0.060493 0.172683 0.385484
v -0.060493 0.172683 -0.419179
v -0.025714 0.191273 0.385484
v -0.025714 0.191273 -0.419179
v 0.012023 0.202720 0.385484
v 0.012023 0.202720 -0.419179
vt 0.374870 0.258772
vt 0.405143 0.926510
vt 0.374871 0.926510
vt 0.405143 0.258772
vt 0.433659 0.926510
vt 0.433658 0.258772
vt 0.459323 0.926510
vt 0.243422 0.928631
vt 0.221596 0.260893
vt 0.243422 0.260893
vt 0.221596 0.928631
vt 0.195932 0.260893
vt 0.167417 0.928631
vt 0.167417 0.260893
vt 0.137143 0.260893
vt 0.137143 0.928631
vt 0.106278 0.260893
vt 0.106278 0.928631
vt 0.076005 0.260893
vt 0.076005 0.928631
vt 0.047489 0.260893
vt 0.047489 0.928631
vt 0.021825 0.260893
vt 0.021825 0.928631
vt 0.000000 0.260893
vt -0.000902 0.072117
vt 0.020924 0.739855
vt -0.000902 0.739855
vt 0.020924 0.072117
vt 0.046588 0.739855
vt 0.046588 0.072117
vt 0.075104 0.739855
vt 0.075104 0.072117
vt 0.105376 0.739855
vt 0.105376 0.072117
vt 0.136242 0.739855
vt 0.136242 0.072117
vt 0.166515 0.739855
vt 0.166515 0.072117
vt 0.195031 0.739855
vt 0.195031 0.072117
vt 0.220695 0.739855
vt 0.434136 0.072117
vt 0.408473 0.739855
vt 0.408473 0.072117
vt 0.379956 0.739855
vt 0.379956 0.072117
vt 0.349684 0.072117
vt 0.349684 0.739855
vt 0.318818 0.072117
vt 0.318818 0.739855
vt 0.288546 0.072117
vt 0.288546 0.739855
vt 0.260029 0.072117
vt 0.234365 0.739855
vt 0.234365 0.072117
vt 0.237726 0.258772
vt 0.259552 0.926510
vt 0.237726 0.926510
vt 0.259552 0.258772
vt 0.285216 0.926510
vt 0.285216 0.258772
vt 0.313732 0.926510
vt 0.580279 0.602883
vt 0.568467 0.475731
vt 0.764845 0.364445
vt 0.344004 0.258772
vt 0.344004 0.926510
vt 0.818187 0.395148
vt 0.840014 0.630093
vt 0.596591 0.418290
vt 0.459322 0.258772
vt 0.195932 0.928631
vt 0.000000 0.928631
vt 0.220695 0.072117
vt 0.434136 0.739855
vt 0.260029 0.739855
vt 0.313732 0.258772
vt 0.793361 0.376969
vt 0.819024 0.395150
vt 0.840850 0.418290
vt 0.857997 0.445500
vt 0.869809 0.475734
vt 0.869808 0.572651
vt 0.875831 0.507830
vt 0.875831 0.540555
vt 0.857996 0.602885
vt 0.840848 0.630094
vt 0.819022 0.653235
vt 0.793359 0.671416
vt 0.764842 0.683939
vt 0.734569 0.690322
vt 0.703703 0.690322
vt 0.673431 0.683937
vt 0.644915 0.671414
vt 0.619251 0.653233
vt 0.597426 0.630093
vt 0.568467 0.572649
vt 0.562445 0.540553
vt 0.562445 0.507828
vt 0.580279 0.445498
vt 0.597428 0.418288
vt 0.619253 0.395149
vt 0.644917 0.376967
vt 0.673433 0.364445
vt 0.703706 0.358061
vt 0.734572 0.358061
vt 0.618418 0.653234
vt 0.596592 0.630095
vt 0.579444 0.602885
vt 0.567632 0.572652
vt 0.561610 0.540555
vt 0.561610 0.507830
vt 0.567631 0.475734
vt 0.579442 0.445500
vt 0.618416 0.395150
vt 0.702868 0.358061
vt 0.644080 0.376969
vt 0.672595 0.364445
vt 0.733734 0.358061
vt 0.764007 0.364444
vt 0.792523 0.376968
vt 0.840012 0.418288
vt 0.857161 0.445498
vt 0.868973 0.475731
vt 0.874995 0.507827
vt 0.874995 0.540552
vt 0.868974 0.572649
vt 0.857162 0.602883
vt 0.818189 0.653233
vt 0.792525 0.671414
vt 0.764009 0.683937
vt 0.733736 0.690323
vt 0.702870 0.690323
vt 0.672598 0.683938
vt 0.644082 0.671415
vn 0.0000 0.7279 0.6857
vn 0.1420 0.7139 -0.6857
vn 0.0000 0.7279 -0.6857
vn 0.1420 0.7139 0.6857
vn 0.2785 0.6725 -0.6857
vn 0.2785 0.6725 0.6857
vn 0.4044 0.6052 -0.6857
vn 0.4044 0.6052 0.6857
vn 0.5147 0.5147 -0.6857
vn 0.5147 0.5147 0.6857
vn 0.6052 0.4044 -0.6857
vn 0.6725 0.2786 0.6857
vn 0.6725 0.2786 -0.6857
vn 0.7139 0.1420 -0.6857
vn 0.7139 0.1420 0.6857
vn 0.7279 0.0000 -0.6857
vn 0.7279 0.0000 0.6857
vn 0.7139 -0.1420 -0.6857
vn 0.7139 -0.1420 0.6857
vn 0.6725 -0.2786 -0.6857
vn 0.6725 -0.2785 0.6857
vn 0.6052 -0.4044 -0.6857
vn 0.6052 -0.4044 0.6857
vn 0.5147 -0.5147 -0.6857
vn 0.5147 -0.5147 0.6857
vn 0.4044 -0.6052 -0.6857
vn 0.4044 -0.6052 0.6857
vn 0.2785 -0.6725 -0.6857
vn 0.2785 -0.6725 0.6857
vn 0.1420 -0.7139 -0.6857
vn 0.1420 -0.7139 0.6857
vn 0.0000 -0.7279 -0.6857
vn 0.0000 -0.7279 0.6857
vn -0.1420 -0.7139 -0.6857
vn -0.1420 -0.7139 0.6857
vn -0.2785 -0.6725 -0.6857
vn -0.2785 -0.6725 0.6857
vn -0.4044 -0.6052 -0.6857
vn -0.4044 -0.6052 0.6857
vn -0.5147 -0.5147 -0.6857
vn -0.6052 -0.4044 0.6857
vn -0.6052 -0.4044 -0.6857
vn -0.6725 -0.2785 0.6857
vn -0.6725 -0.2786 -0.6857
vn -0.7139 -0.1420 -0.6857
vn -0.7139 -0.1420 0.6857
vn -0.7279 0.0000 -0.6857
vn -0.7279 0.0000 0.6857
vn -0.7139 0.1420 -0.6857
vn -0.7139 0.1420 0.6857
vn -0.6725 0.2785 -0.6857
vn -0.6052 0.4044 0.6857
vn -0.6052 0.4044 -0.6857
vn -0.5147 0.5147 -0.6857
vn -0.5147 0.5147 0.6857
vn -0.4044 0.6052 -0.6857
vn -0.4044 0.6052 0.6857
vn -0.2785 0.6725 -0.6857
vn -0.1420 0.7139 0.6857
vn -0.1420 0.7139 -0.6857
vn 0.6052 0.4044 0.6857
vn -0.5147 -0.5147 0.6857
vn -0.6725 0.2785 0.6857
vn -0.2785 0.6725 0.6857
s 1
f 2/1/1 4/2/2 1/3/3
f 3/4/4 6/5/5 4/2/2
f 5/6/6 8/7/7 6/5/5
f 7/8/8 10/9/9 8/10/7
f 9/11/10 12/12/11 10/9/9
f 12/12/11 13/13/12 14/14/13
f 13/13/12 16/15/14 14/14/13
f 15/16/15 18/17/16 16/15/14
f 17/18/17 20/19/18 18/17/16
f 19/20/19 22/21/20 20/19/18
f 21/22/21 24/23/22 22/21/20
f 23/24/23 26/25/24 24/23/22
f 25/26/25 28/27/26 26/28/24
f 27/29/27 30/30/28 28/27/26
f 29/31/29 32/32/30 30/30/28
f 31/33/31 34/34/32 32/32/30
f 33/35/33 36/36/34 34/34/32
f 35/37/35 38/38/36 36/36/34
f 37/39/37 40/40/38 38/38/36
f 39/41/39 42/42/40 40/40/38
f 42/43/40 43/44/41 44/45/42
f 44/45/42 45/46/43 46/47/44
f 45/46/43 48/48/45 46/47/44
f 47/49/46 50/50/47 48/48/45
f 49/51/48 52/52/49 50/50/47
f 51/53/50 54/54/51 52/52/49
f 54/54/51 55/55/52 56/56/53
f 55/57/52 58/58/54 56/59/53
f 57/60/55 60/61/56 58/58/54
f 59/62/57 62/63/58 60/61/56
f 29/64/29 21/65/21 5/66/6
f 62/63/58 63/67/59 64/68/60
f 63/67/59 1/3/3 64/68/60
f 32/69/30 48/70/45 16/71/14
f 2/1/1 3/4/4 4/2/2
f 3/4/4 5/6/6 6/5/5
f 5/6/6 7/72/8 8/7/7
f 7/8/8 9/11/10 10/9/9
f 9/11/10 11/73/61 12/12/11
f 12/12/11 11/73/61 13/13/12
f 13/13/12 15/16/15 16/15/14
f 15/16/15 17/18/17 18/17/16
f 17/18/17 19/20/19 20/19/18
f 19/20/19 21/22/21 22/21/20
f 21/22/21 23/24/23 24/23/22
f 23/24/23 25/74/25 26/25/24
f 25/26/25 27/29/27 28/27/26
f 27/29/27 29/31/29 30/30/28
f 29/31/29 31/33/31 32/32/30
f 31/33/31 33/35/33 34/34/32
f 33/35/33 35/37/35 36/36/34
f 35/37/35 37/39/37 38/38/36
f 37/39/37 39/41/39 40/40/38
f 39/41/39 41/75/62 42/42/40
f 42/43/40 41/76/62 43/44/41
f 44/45/42 43/44/41 45/46/43
f 45/46/43 47/49/46 48/48/45
f 47/49/46 49/51/48 50/50/47
f 49/51/48 51/53/50 52/52/49
f 51/53/50 53/77/63 54/54/51
f 54/54/51 53/77/63 55/55/52
f 55/57/52 57/60/55 58/58/54
f 57/60/55 59/62/57 60/61/56
f 59/62/57 61/78/64 62/63/58
f 5/66/6 3/79/4 2/80/1
f 2/80/1 63/81/59 5/66/6
f 61/82/64 59/83/57 53/84/63
f 57/85/55 55/86/52 53/84/63
f 53/84/63 51/87/50 49/88/48
f 49/88/48 47/89/46 45/90/43
f 45/90/43 43/91/41 41/92/62
f 41/92/62 39/93/39 37/94/37
f 37/94/37 35/95/35 33/96/33
f 33/96/33 31/97/31 29/64/29
f 29/64/29 27/98/27 25/99/25
f 25/99/25 23/100/23 21/65/21
f 21/65/21 19/101/19 17/102/17
f 17/102/17 15/103/15 13/104/12
f 13/104/12 11/105/61 9/106/10
f 9/106/10 7/107/8 5/66/6
f 5/66/6 63/81/59 61/82/64
f 59/83/57 57/85/55 53/84/63
f 53/84/63 49/88/48 37/94/37
f 45/90/43 41/92/62 37/94/37
f 37/94/37 33/96/33 29/64/29
f 29/64/29 25/99/25 21/65/21
f 21/65/21 17/102/17 5/66/6
f 13/104/12 9/106/10 5/66/6
f 5/66/6 61/82/64 53/84/63
f 49/88/48 45/90/43 37/94/37
f 37/94/37 29/64/29 5/66/6
f 17/102/17 13/104/12 5/66/6
f 5/66/6 53/84/63 37/94/37
f 62/63/58 61/78/64 63/67/59
f 63/67/59 2/1/1 1/3/3
f 64/108/60 1/109/3 4/110/2
f 4/110/2 6/111/5 8/112/7
f 8/112/7 10/113/9 16/71/14
f 12/114/11 14/115/13 16/71/14
f 16/71/14 18/116/16 24/117/22
f 20/118/18 22/119/20 24/117/22
f 24/117/22 26/120/24 28/121/26
f 28/121/26 30/122/28 24/117/22
f 32/69/30 34/123/32 36/124/34
f 36/124/34 38/125/36 32/69/30
f 40/126/38 42/127/40 48/70/45
f 44/128/42 46/129/44 48/70/45
f 48/70/45 50/130/47 52/131/49
f 52/131/49 54/132/51 48/70/45
f 56/133/53 58/134/54 60/135/56
f 60/135/56 62/136/58 64/108/60
f 64/108/60 4/110/2 16/71/14
f 10/113/9 12/114/11 16/71/14
f 18/116/16 20/118/18 24/117/22
f 24/117/22 30/122/28 32/69/30
f 32/69/30 38/125/36 40/126/38
f 42/127/40 44/128/42 48/70/45
f 48/70/45 54/132/51 56/133/53
f 56/133/53 60/135/56 48/70/45
f 4/110/2 8/112/7 16/71/14
f 16/71/14 24/117/22 32/69/30
f 32/69/30 40/126/38 48/70/45
f 48/70/45 60/135/56 64/108/60
f 64/108/60 16/71/14 48/70/45
