# Blender v2.79 (sub 0) OBJ File: 'untitled.blend'
# www.blender.org
mtllib untitled.mtl
o Cylinder
v 0.051269 0.206586 -0.419179
v 0.051269 0.206586 0.385484
v 0.090514 0.202720 -0.419179
v 0.090514 0.202720 0.385484
v 0.128251 0.191273 -0.419179
v 0.128251 0.191273 0.385484
v 0.163030 0.172683 -0.419179
v 0.163030 0.172683 0.385484
v 0.193514 0.147665 -0.419179
v 0.193514 0.147665 0.385484
v 0.218532 0.117181 -0.419179
v 0.218532 0.117181 0.385484
v 0.237122 0.082403 -0.419179
v 0.237122 0.082403 0.385484
v 0.248569 0.044665 -0.419179
v 0.248569 0.044665 0.385484
v 0.252434 0.005420 -0.419179
v 0.252434 0.005420 0.385484
v 0.248569 -0.033826 -0.419179
v 0.248569 -0.033826 0.385484
v 0.237122 -0.071563 -0.419179
v 0.237122 -0.071563 0.385484
v 0.218532 -0.106342 -0.419179
v 0.218532 -0.106342 0.385484
v 0.193514 -0.136826 -0.419179
v 0.193514 -0.136826 0.385484
v 0.163030 -0.161844 -0.419179
v 0.163030 -0.161844 0.385484
v 0.128251 -0.180433 -0.419179
v 0.128251 -0.180433 0.385484
v 0.090514 -0.191881 -0.419179
v 0.090514 -0.191881 0.385484
v 0.051269 -0.195746 -0.419179
v 0.051269 -0.195746 0.385484
v 0.012023 -0.191881 -0.419179
v 0.012023 -0.191881 0.385484
v -0.025714 -0.180433 -0.419179
v -0.025714 -0.180433 0.385484
v -0.060493 -0.161844 -0.419179
v -0.060493 -0.161844 0.385484
v -0.090977 -0.136826 -0.419179
v -0.090977 -0.136826 0.385484
v -0.115995 -0.106342 -0.419179
v -0.115995 -0.106342 0.385484
v -0.134585 -0.071563 -0.419179
v -0.134585 -0.071563 0.385484
v -0.146032 -0.033826 -0.419179
v -0.146032 -0.033826 0.385484
v -0.149897 0.005420 -0.419179
v -0.149897 0.005420 0.385484
v -0.146032 0.044665 -0.419179
v -0.146032 0.044665 0.385484
v -0.134584 0.082403 -0.419179
v -0.134584 0.082403 0.385484
v -0.115995 0.117182 -0.419179
v -0.115995 0.117182 0.385484
v -0.090977 0.147666 -0.419179
v -0.090977 0.147666 0.385484
v -0.060493 0.172683 -0.419179
v -0.060493 0.172683 0.385484
v -0.025714 0.191273 -0.419179
v -0.025714 0.191273 0.385484
v 0.012023 0.202720 -0.419179
v 0.012023 0.202720 0.385484
vt 0.829643 0.853234
vt 0.415154 0.853234
vt 0.415154 0.893665
vt 0.829643 0.893665
vt 0.415154 0.932543
vt 0.829643 0.932543
vt 0.415154 0.968373
vt 0.829643 0.968373
vt 0.415154 0.999778
vt 0.829643 0.999778
vt 0.414711 0.999778
vt 0.000222 0.999778
vt 0.000222 0.968373
vt 0.414711 0.968373
vt 0.000222 0.932543
vt 0.414711 0.932543
vt 0.000222 0.893666
vt 0.414711 0.893666
vt 0.000222 0.853234
vt 0.414711 0.853234
vt 0.000222 0.812803
vt 0.414711 0.812803
vt 0.000222 0.773925
vt 0.414711 0.773925
vt 0.000222 0.738095
vt 0.414711 0.738095
vt 0.000222 0.706690
vt 0.414711 0.706690
vt 0.829643 0.706246
vt 0.415154 0.706246
vt 0.415154 0.674841
vt 0.829643 0.674841
vt 0.415154 0.639012
vt 0.829643 0.639012
vt 0.415154 0.600134
vt 0.829643 0.600134
vt 0.415154 0.559703
vt 0.829643 0.559703
vt 0.415154 0.519271
vt 0.829643 0.519271
vt 0.415154 0.480393
vt 0.829643 0.480394
vt 0.415154 0.444564
vt 0.829643 0.444564
vt 0.415154 0.413159
vt 0.829643 0.413159
vt 0.414711 0.413159
vt 0.000222 0.413159
vt 0.000222 0.444564
vt 0.414711 0.444564
vt 0.000222 0.480394
vt 0.414711 0.480394
vt 0.000222 0.519271
vt 0.414711 0.519271
vt 0.000222 0.559703
vt 0.414711 0.559703
vt 0.000222 0.600134
vt 0.414711 0.600134
vt 0.000222 0.639012
vt 0.414711 0.639012
vt 0.000222 0.674841
vt 0.414711 0.674841
vt 0.000222 0.706246
vt 0.414711 0.706246
vt 0.829643 0.706690
vt 0.415154 0.706690
vt 0.415154 0.738095
vt 0.829643 0.738095
vt 0.415154 0.773925
vt 0.829643 0.773925
vt 0.074994 0.046266
vt 0.108774 0.023695
vt 0.146308 0.008148
vt 0.186155 0.000222
vt 0.226782 0.000222
vt 0.266628 0.008148
vt 0.304163 0.023695
vt 0.337943 0.046266
vt 0.366670 0.074994
vt 0.389242 0.108774
vt 0.404789 0.146308
vt 0.412715 0.186155
vt 0.412715 0.226782
vt 0.404789 0.266628
vt 0.389242 0.304163
vt 0.366670 0.337943
vt 0.337943 0.366670
vt 0.304163 0.389242
vt 0.266628 0.404789
vt 0.226782 0.412715
vt 0.186155 0.412715
vt 0.146308 0.404789
vt 0.108774 0.389241
vt 0.074994 0.366670
vt 0.046266 0.337943
vt 0.023695 0.304163
vt 0.008148 0.266628
vt 0.000222 0.226782
vt 0.000222 0.186155
vt 0.008148 0.146308
vt 0.023695 0.108774
vt 0.046266 0.074994
vt 0.415154 0.812803
vt 0.829643 0.812803
vt 0.459203 0.337943
vt 0.487931 0.366670
vt 0.521711 0.389241
vt 0.559245 0.404789
vt 0.599091 0.412715
vt 0.639718 0.412715
vt 0.679565 0.404789
vt 0.717099 0.389242
vt 0.750879 0.366670
vt 0.779607 0.337943
vt 0.802178 0.304163
vt 0.817725 0.266628
vt 0.825651 0.226782
vt 0.825651 0.186155
vt 0.817726 0.146309
vt 0.802178 0.108774
vt 0.779607 0.074994
vt 0.750879 0.046266
vt 0.717099 0.023695
vt 0.679565 0.008148
vt 0.639719 0.000222
vt 0.599091 0.000222
vt 0.559245 0.008148
vt 0.521711 0.023695
vt 0.487931 0.046266
vt 0.459203 0.074994
vt 0.436632 0.108774
vt 0.421085 0.146309
vt 0.413159 0.186155
vt 0.413159 0.226782
vt 0.421085 0.266628
vt 0.436632 0.304163
vn 0.0980 0.9952 0.0000
vn 0.2903 0.9569 0.0000
vn 0.4714 0.8819 0.0000
vn 0.6344 0.7730 0.0000
vn 0.7730 0.6344 0.0000
vn 0.8819 0.4714 0.0000
vn 0.9569 0.2903 0.0000
vn 0.9952 0.0980 0.0000
vn 0.9952 -0.0980 -0.0000
vn 0.9569 -0.2903 -0.0000
vn 0.8819 -0.4714 -0.0000
vn 0.7730 -0.6344 -0.0000
vn 0.6344 -0.7730 -0.0000
vn 0.4714 -0.8819 -0.0000
vn 0.2903 -0.9569 -0.0000
vn 0.0980 -0.9952 -0.0000
vn -0.0980 -0.9952 -0.0000
vn -0.2903 -0.9569 -0.0000
vn -0.4714 -0.8819 -0.0000
vn -0.6344 -0.7730 -0.0000
vn -0.7730 -0.6344 -0.0000
vn -0.8819 -0.4714 -0.0000
vn -0.9569 -0.2903 -0.0000
vn -0.9952 -0.0980 -0.0000
vn -0.9952 0.0980 0.0000
vn -0.9569 0.2903 0.0000
vn -0.8819 0.4714 0.0000
vn -0.7730 0.6344 0.0000
vn -0.6344 0.7730 0.0000
vn -0.4714 0.8819 0.0000
vn 0.0000 0.0000 1.0000
vn -0.2903 0.9569 0.0000
vn -0.0980 0.9952 0.0000
vn -0.0000 0.0000 -1.0000
usemtl Material.001
s off
f 1/1/1 2/2/1 4/3/1 3/4/1
f 3/4/2 4/3/2 6/5/2 5/6/2
f 5/6/3 6/5/3 8/7/3 7/8/3
f 7/8/4 8/7/4 10/9/4 9/10/4
f 9/11/5 10/12/5 12/13/5 11/14/5
f 11/14/6 12/13/6 14/15/6 13/16/6
f 13/16/7 14/15/7 16/17/7 15/18/7
f 15/18/8 16/17/8 18/19/8 17/20/8
f 17/20/9 18/19/9 20/21/9 19/22/9
f 19/22/10 20/21/10 22/23/10 21/24/10
f 21/24/11 22/23/11 24/25/11 23/26/11
f 23/26/12 24/25/12 26/27/12 25/28/12
f 25/29/13 26/30/13 28/31/13 27/32/13
f 27/32/14 28/31/14 30/33/14 29/34/14
f 29/34/15 30/33/15 32/35/15 31/36/15
f 31/36/16 32/35/16 34/37/16 33/38/16
f 33/38/17 34/37/17 36/39/17 35/40/17
f 35/40/18 36/39/18 38/41/18 37/42/18
f 37/42/19 38/41/19 40/43/19 39/44/19
f 39/44/20 40/43/20 42/45/20 41/46/20
f 41/47/21 42/48/21 44/49/21 43/50/21
f 43/50/22 44/49/22 46/51/22 45/52/22
f 45/52/23 46/51/23 48/53/23 47/54/23
f 47/54/24 48/53/24 50/55/24 49/56/24
f 49/56/25 50/55/25 52/57/25 51/58/25
f 51/58/26 52/57/26 54/59/26 53/60/26
f 53/60/27 54/59/27 56/61/27 55/62/27
f 55/62/28 56/61/28 58/63/28 57/64/28
f 57/65/29 58/66/29 60/67/29 59/68/29
f 59/68/30 60/67/30 62/69/30 61/70/30
f 4/71/31 2/72/31 64/73/31 62/74/31 60/75/31 58/76/31 56/77/31 54/78/31 52/79/31 50/80/31 48/81/31 46/82/31 44/83/31 42/84/31 40/85/31 38/86/31 36/87/31 34/88/31 32/89/31 30/90/31 28/91/31 26/92/31 24/93/31 22/94/31 20/95/31 18/96/31 16/97/31 14/98/31 12/99/31 10/100/31 8/101/31 6/102/31
f 61/70/32 62/69/32 64/103/32 63/104/32
f 63/104/33 64/103/33 2/2/33 1/1/33
f 1/105/34 3/106/34 5/107/34 7/108/34 9/109/34 11/110/34 13/111/34 15/112/34 17/113/34 19/114/34 21/115/34 23/116/34 25/117/34 27/118/34 29/119/34 31/120/34 33/121/34 35/122/34 37/123/34 39/124/34 41/125/34 43/126/34 45/127/34 47/128/34 49/129/34 51/130/34 53/131/34 55/132/34 57/133/34 59/134/34 61/135/34 63/136/34
